<svg width="84" height="84" viewBox="0 0 84 84" fill="none" xmlns="http://www.w3.org/2000/svg">
<path fill-rule="evenodd" clip-rule="evenodd" d="M17.0427 18.0936C16.3785 18.9102 16.167 19.8435 16.167 20.4012V41H27.917V31.9167H29.917V53.9167H27.917V43H16.167V63.645L16.1628 63.6907C16.0715 64.6838 15.6454 66.1294 14.6454 67.3486C13.6145 68.6054 11.9998 69.5835 9.66699 69.5835V67.5835C11.3675 67.5835 12.4264 66.9002 13.099 66.0802C13.7877 65.2406 14.0967 64.2198 14.167 63.5502V20.4012C14.167 19.4359 14.5055 18.0432 15.4912 16.8315C16.5028 15.5879 18.1395 14.6049 20.5917 14.4197L20.7423 16.414C18.7944 16.5611 17.6812 17.3087 17.0427 18.0936ZM32.5 31.8333H48.1667V33.8333H34.5V41.9166H45.9103V43.9166H34.5V51.9999H48.1667V53.9999H32.5V31.8333ZM50.7578 31.9165H52.9652L65.6583 50.6574V31.9171H67.6583V53.9171H65.4505L52.7578 35.1768V53.9171H50.7578V31.9165Z" fill="black"/>
<path fill-rule="evenodd" clip-rule="evenodd" d="M10 7C6.68629 7 4 9.68629 4 13V71C4 74.3137 6.68629 77 10 77H78C79.1046 77 80 76.1046 80 75C80 73.8954 79.1046 73 78 73H73.6586C73.8797 72.3744 74 71.7013 74 71V13C74 9.68629 71.3137 7 68 7H10ZM68 73C69.1046 73 70 72.1046 70 71V13C70 11.8954 69.1046 11 68 11H10C8.89543 11 8 11.8954 8 13V71C8 72.1046 8.89543 73 10 73H68Z" fill="#FFC29C"/>
</svg>
